<svg width="1080" height="1080" viewBox="0 0 1080 1080" fill="none" xmlns="http://www.w3.org/2000/svg">
<g clip-path="url(#clip0_1_3)">
<rect width="1080" height="1080" fill="white"/>
<circle cx="540" cy="540" r="527.5" stroke="#323232" stroke-width="25"/>
<rect x="119" y="478.363" width="191.51" height="63.8368" fill="#323232"/>
<rect x="310.51" y="463.948" width="191.51" height="92.6662" fill="#323232"/>
<rect x="493.783" y="453.652" width="467.45" height="111.2" fill="#323232"/>
<rect x="119" y="463.948" width="16.474" height="92.6662" fill="#323232"/>
<rect x="485.546" y="441.296" width="16.474" height="135.911" fill="#323232"/>
<rect x="944.759" y="431" width="16.474" height="156.503" fill="#323232"/>
<rect x="302.273" y="453.652" width="16.474" height="111.2" fill="#323232"/>
<path d="M344.209 750V699.6H348.601L383.377 743.376H381.073V699.6H386.329V750H381.937L347.233 706.224H349.537V750H344.209ZM446.483 750.432C442.643 750.432 439.091 749.808 435.827 748.56C432.611 747.264 429.803 745.464 427.403 743.16C425.051 740.856 423.203 738.144 421.859 735.024C420.563 731.904 419.915 728.496 419.915 724.8C419.915 721.104 420.563 717.696 421.859 714.576C423.203 711.456 425.075 708.744 427.475 706.44C429.875 704.136 432.683 702.36 435.899 701.112C439.163 699.816 442.715 699.168 446.555 699.168C450.395 699.168 453.899 699.768 457.067 700.968C460.283 702.168 463.019 703.992 465.275 706.44L461.963 709.824C459.851 707.712 457.523 706.2 454.979 705.288C452.435 704.376 449.699 703.92 446.771 703.92C443.651 703.92 440.771 704.448 438.131 705.504C435.539 706.512 433.259 707.976 431.291 709.896C429.371 711.768 427.859 713.976 426.755 716.52C425.699 719.016 425.171 721.776 425.171 724.8C425.171 727.776 425.699 730.536 426.755 733.08C427.859 735.624 429.371 737.856 431.291 739.776C433.259 741.648 435.539 743.112 438.131 744.168C440.771 745.176 443.627 745.68 446.699 745.68C449.579 745.68 452.291 745.248 454.835 744.384C457.427 743.52 459.803 742.056 461.963 739.992L464.987 744.024C462.587 746.136 459.779 747.744 456.563 748.848C453.347 749.904 449.987 750.432 446.483 750.432ZM459.875 743.376V724.8H464.987V744.024L459.875 743.376ZM542.11 763.968V696.576H546.862V763.968H542.11ZM625.318 750V699.6H647.062C652.678 699.6 657.022 700.728 660.094 702.984C663.214 705.24 664.774 708.432 664.774 712.56C664.774 715.296 664.126 717.6 662.83 719.472C661.582 721.344 659.854 722.76 657.646 723.72C655.486 724.68 653.11 725.16 650.518 725.16L651.742 723.432C654.958 723.432 657.718 723.936 660.022 724.944C662.374 725.904 664.198 727.368 665.494 729.336C666.79 731.256 667.438 733.656 667.438 736.536C667.438 740.808 665.854 744.12 662.686 746.472C659.566 748.824 654.838 750 648.502 750H625.318ZM630.646 745.608H648.43C652.846 745.608 656.23 744.864 658.582 743.376C660.934 741.84 662.11 739.416 662.11 736.104C662.11 732.84 660.934 730.464 658.582 728.976C656.23 727.44 652.846 726.672 648.43 726.672H630.07V722.28H646.702C650.734 722.28 653.854 721.512 656.062 719.976C658.318 718.44 659.446 716.16 659.446 713.136C659.446 710.064 658.318 707.784 656.062 706.296C653.854 704.76 650.734 703.992 646.702 703.992H630.646V745.608ZM705.807 737.472L705.591 730.992L736.119 699.6H742.239L719.991 722.928L716.967 726.168L705.807 737.472ZM701.199 750V699.6H706.527V750H701.199ZM737.415 750L715.671 724.944L719.271 721.056L743.751 750H737.415Z" fill="black"/>
</g>
<defs>
<clipPath id="clip0_1_3">
<rect width="1080" height="1080" fill="white"/>
</clipPath>
</defs>
</svg>
